<svg xmlns="http://www.w3.org/2000/svg" viewBox="0 0 800 520" width="1200" height="780">
  <defs>
    <style>
      text { font-family: -apple-system, 'Segoe UI', sans-serif; fill: #c9d1d9; }
      .label { font-size: 13px; font-weight: 500; }
      .edge-label { font-size: 11px; fill: #8b949e; }
      .node { rx: 8; ry: 8; }
      .node-main { fill: #1f2937; stroke: #374151; stroke-width: 1.5; }
      .node-accent { fill: #1e293b; stroke: #3b82f6; stroke-width: 1.5; }
      .node-circle { fill: #1f2937; stroke: #374151; stroke-width: 1.5; }
      .edge { stroke: #4b5563; stroke-width: 1.5; fill: none; marker-end: url(#arrow); }
      .edge-dashed { stroke: #4b5563; stroke-width: 1.5; fill: none; stroke-dasharray: 6 4; marker-end: url(#arrow); }
    </style>
    <marker id="arrow" viewBox="0 0 10 10" refX="9" refY="5" markerWidth="6" markerHeight="6" orient="auto-start-reverse">
      <path d="M 0 0 L 10 5 L 0 10 z" fill="#4b5563"/>
    </marker>
  </defs>

  <!-- Internet node (circle) -->
  <circle cx="400" cy="45" r="36" class="node-circle"/>
  <text x="400" y="50" text-anchor="middle" class="label">Internet</text>

  <!-- HAProxy -->
  <rect x="275" y="120" width="250" height="40" class="node node-accent"/>
  <text x="400" y="145" text-anchor="middle" class="label">HAProxy — SNI Router</text>

  <!-- Edge: Internet → HAProxy -->
  <line x1="400" y1="81" x2="400" y2="120" class="edge"/>
  <text x="440" y="105" class="edge-label">Port 443</text>

  <!-- Xray Reality -->
  <rect x="80" y="230" width="200" height="40" class="node node-main"/>
  <text x="180" y="255" text-anchor="middle" class="label">Xray Reality :10443</text>

  <!-- Caddy TLS -->
  <rect x="520" y="230" width="200" height="40" class="node node-accent"/>
  <text x="620" y="255" text-anchor="middle" class="label">Caddy TLS :8443</text>

  <!-- Edges: HAProxy → Xray, HAProxy → Caddy -->
  <path d="M 330 160 L 180 230" class="edge"/>
  <text x="220" y="192" class="edge-label">SNI = camouflage</text>

  <path d="M 470 160 L 620 230" class="edge"/>
  <text x="530" y="192" class="edge-label">SNI = server IP</text>

  <!-- Connection Page -->
  <rect x="420" y="330" width="170" height="36" class="node node-main"/>
  <text x="505" y="353" text-anchor="middle" class="label">Connection Page</text>

  <!-- 3x-ui Panel -->
  <rect x="610" y="330" width="140" height="36" class="node node-main"/>
  <text x="680" y="353" text-anchor="middle" class="label">3x-ui Panel</text>

  <!-- Xray XHTTP -->
  <rect x="420" y="400" width="170" height="36" class="node node-main"/>
  <text x="505" y="423" text-anchor="middle" class="label">Xray XHTTP</text>

  <!-- Xray WSS -->
  <rect x="610" y="400" width="140" height="36" class="node node-main"/>
  <text x="680" y="423" text-anchor="middle" class="label">Xray WSS</text>

  <!-- Edges: Caddy → children -->
  <line x1="580" y1="270" x2="505" y2="330" class="edge"/>
  <line x1="660" y1="270" x2="680" y2="330" class="edge"/>
  <line x1="580" y1="270" x2="505" y2="400" class="edge"/>
  <path d="M 660 270 L 680 400" class="edge-dashed"/>
  <text x="720" y="385" class="edge-label" font-style="italic">domain mode</text>

  <!-- Caddy ACME -->
  <rect x="80" y="330" width="200" height="36" class="node node-main"/>
  <text x="180" y="353" text-anchor="middle" class="label">Caddy ACME</text>

  <!-- Edge: Internet → Caddy ACME -->
  <path d="M 368 65 Q 60 65 60 340 L 80 348" class="edge"/>
  <text x="42" y="200" class="edge-label" transform="rotate(-90 42 200)">Port 80</text>
</svg>
